<?xml version="1.0" encoding="UTF-8"?>
<svg xmlns="http://www.w3.org/2000/svg" xmlns:xlink="http://www.w3.org/1999/xlink" width="171px" height="172px" viewBox="0 0 171 172">
  <!-- Generator: Sketch 56.3 (81716) - https://sketch.com -->
  <title>Emblem_simple-1-white</title>
  <desc>Created with Sketch.</desc>
  <g id="Page-1" stroke="none" stroke-width="1" fill="none" fill-rule="evenodd">
    <g id="Social-FO-black" transform="translate(-85.000000, -84.000000)" fill="#FFFFFF">
      <g id="Emblem_simple-1-white" transform="translate(85.000000, 84.000000)">
        <path d="M96.986,0.225 C97.047,42.056 128.515,79.807 170.986,76.972 C170.989,76.972 170.992,76.97 170.992,76.966 L170.992,0.217 L96.995,0.217 C96.991,0.217 96.986,0.221 96.986,0.225" id="Fill-1"></path>
        <path d="M74.732,127.313 C74.732,103.195 94.284,83.645 118.402,83.645 C142.52,83.645 162.071,103.195 162.071,127.313 C162.071,151.432 142.52,170.983 118.402,170.983 C94.284,170.983 74.732,151.432 74.732,127.313" id="Fill-2"></path>
        <path d="M80.545,0.217 C84.783,84.196 54.605,147.455 0.225,171.525 L0.225,0.217 L80.545,0.217" id="Fill-3"></path>
      </g>
    </g>
  </g>
</svg>
